<?xml version="1.0" encoding="utf-8"?>
<!-- Generator: Adobe Illustrator 25.2.1, SVG Export Plug-In . SVG Version: 6.00 Build 0)  -->
<svg version="1.1" id="Layer_1" xmlns="http://www.w3.org/2000/svg" xmlns:xlink="http://www.w3.org/1999/xlink" x="0px" y="0px"
	 viewBox="0 0 357.2 102.8" style="enable-background:new 0 0 357.2 102.8;" xml:space="preserve">
<style type="text/css">
	.st0{fill:#FFFFFF;}
	.st1{fill:#F7F7F7;}
	.st2{fill:none;}
	.st3{font-family:'BebasNeue-Regular';}
	.st4{font-size:7px;}
</style>
<rect x="120.3" y="91.2" class="st0" width="65.4" height="11.3"/>
<path class="st0" d="M119.8,17.1h10.7v59.6h17.6v8.6l-28.4,0.1L119.8,17.1L119.8,17.1z"/>
<path class="st0" d="M153.2,17.2h10.7v68.3h-10.7V17.2z"/>
<path class="st0" d="M174.2,17.2h15.3l6.8,48.9h0.2l6.8-48.9h15.3v68.3h-10.1V33.8h-0.2l-7.8,51.7h-9l-7.8-51.7h-0.2v51.7h-9.4
	L174.2,17.2L174.2,17.2z"/>
<path class="st0" d="M226.9,17.2h10.7v68.3h-10.7V17.2z"/>
<path class="st0" d="M255.1,27h-11.2v-9.8H277V27h-11.2v58.5h-10.7L255.1,27L255.1,27z"/>
<path class="st0" d="M284.3,17.2h29.3V27h-18.5v18h14.7v9.8h-14.7v21h18.5v9.8h-29.3V17.2z"/>
<path class="st0" d="M324.8,17.2h16.4c10.7,0,16,5.9,16,16.9v34.5c0,10.9-5.3,16.9-16,16.9h-16.4V17.2z M341,75.8
	c3.4,0,5.5-1.8,5.5-6.6V33.6c0-4.9-2-6.6-5.5-6.6h-5.5v48.8L341,75.8L341,75.8z"/>
<path class="st1" d="M0,0v102.5h112.8V0H0z M48.8,70.6c0,12.3-6.1,19.3-18,19.3s-18-7-18-19.3V12h12.1v59.6c0,5.5,2.3,7.5,6.1,7.5
	c3.9,0,6.1-2,6.1-7.5V12h11.6L48.8,70.6L48.8,70.6z M97.4,89.4H85L70.5,33.3h-0.2v56.1H59.5V12.5h15.2l11.8,46h0.2v-46h10.8V89.4z"
	/>
<rect x="119.6" class="st0" width="237.6" height="12.4"/>
<g>
	<path class="st0" d="M151.9,93.9c-0.3,0-0.5,0.2-0.5,0.6V98c0,0.4,0.2,0.6,0.5,0.6c0.3,0,0.5-0.2,0.5-0.6v-3.4
		C152.4,94.1,152.2,93.9,151.9,93.9z"/>
	<path class="st0" d="M163.5,93.9c-0.3,0-0.5,0.2-0.5,0.6V98c0,0.4,0.2,0.6,0.5,0.6s0.5-0.2,0.5-0.6v-3.4
		C164,94.1,163.8,93.9,163.5,93.9z"/>
	<path class="st0" d="M140.1,94h-0.5v4.5h0.5c0.1,0,0.3,0,0.4-0.1s0.1-0.2,0.1-0.5v-3.3c0-0.2,0-0.4-0.1-0.5
		C140.4,94.1,140.3,94,140.1,94z"/>
	<path class="st0" d="M128.8,93.9c-0.3,0-0.5,0.2-0.5,0.6V98c0,0.4,0.2,0.6,0.5,0.6c0.3,0,0.5-0.2,0.5-0.6v-3.4
		C129.3,94.1,129.1,93.9,128.8,93.9z"/>
	<path class="st0" d="M119.8,90.2v12.4h237.4V90.2H119.8z M126.2,99.1c-0.2,0.3-0.6,0.4-1,0.4c-0.4,0-0.8-0.1-1-0.4
		s-0.3-0.7-0.3-1.2v-0.4h0.9V98c0,0.4,0.2,0.6,0.5,0.6c0.2,0,0.3,0,0.4-0.1s0.1-0.3,0.1-0.5c0-0.3-0.1-0.5-0.2-0.7s-0.3-0.4-0.6-0.7
		c-0.4-0.4-0.6-0.7-0.8-1s-0.2-0.6-0.2-1c0-0.5,0.1-0.9,0.4-1.2c0.2-0.3,0.6-0.4,1-0.4c0.4,0,0.8,0.1,1,0.4s0.3,0.7,0.3,1.2v0.3
		h-0.9v-0.3c0-0.2,0-0.4-0.1-0.5s-0.2-0.1-0.3-0.1c-0.3,0-0.5,0.2-0.5,0.6c0,0.2,0.1,0.4,0.2,0.6s0.3,0.4,0.6,0.7
		c0.4,0.4,0.6,0.7,0.8,1s0.2,0.6,0.2,1C126.6,98.4,126.5,98.8,126.2,99.1z M130.2,97.9c0,0.5-0.1,0.9-0.4,1.2s-0.6,0.4-1,0.4
		s-0.8-0.1-1-0.4c-0.2-0.3-0.4-0.7-0.4-1.2v-3.3c0-0.5,0.1-0.9,0.4-1.2s0.6-0.4,1-0.4s0.8,0.1,1,0.4c0.2,0.3,0.4,0.7,0.4,1.2V97.9z
		 M133.9,97.9c0,0.5-0.1,0.9-0.4,1.2c-0.2,0.3-0.6,0.4-1,0.4s-0.8-0.1-1-0.4s-0.4-0.7-0.4-1.2v-4.8h0.9V98c0,0.2,0,0.4,0.1,0.5
		s0.2,0.1,0.4,0.1c0.1,0,0.3,0,0.4-0.1c0.1-0.1,0.1-0.2,0.1-0.5v-4.9h0.9L133.9,97.9L133.9,97.9z M137.7,99.4h-0.9l-1.1-4.6h0v4.6
		h-0.8v-6.3h1.1l0.9,3.8h0v-3.8h0.8L137.7,99.4L137.7,99.4z M141.5,97.9c0,0.5-0.1,0.9-0.3,1.2s-0.6,0.4-1,0.4h-1.4v-6.3h1.4
		c0.5,0,0.8,0.1,1,0.4c0.2,0.3,0.3,0.6,0.3,1.2V97.9z M144.7,99.1c-0.2,0.3-0.6,0.4-1,0.4c-0.4,0-0.8-0.1-1-0.4s-0.3-0.7-0.3-1.2
		v-0.4h0.9V98c0,0.4,0.2,0.6,0.5,0.6c0.2,0,0.3,0,0.4-0.1s0.1-0.3,0.1-0.5c0-0.3-0.1-0.5-0.2-0.7s-0.3-0.4-0.6-0.7
		c-0.4-0.4-0.6-0.7-0.8-1s-0.2-0.6-0.2-1c0-0.5,0.1-0.9,0.4-1.2c0.2-0.3,0.6-0.4,1-0.4c0.4,0,0.8,0.1,1,0.4s0.3,0.7,0.3,1.2v0.3
		h-0.9v-0.3c0-0.2,0-0.4-0.1-0.5s-0.2-0.1-0.3-0.1c-0.3,0-0.5,0.2-0.5,0.6c0,0.2,0.1,0.4,0.2,0.6s0.3,0.4,0.6,0.7
		c0.4,0.4,0.6,0.7,0.8,1s0.2,0.6,0.2,1C145.1,98.4,144.9,98.8,144.7,99.1z M148.7,96.7v2.7h-0.9v-2.7l-1.1-3.6h1l0.6,2.3h0l0.6-2.3
		h0.9L148.7,96.7z M153.3,97.9c0,0.5-0.1,0.9-0.4,1.2s-0.6,0.4-1,0.4s-0.8-0.1-1-0.4c-0.2-0.3-0.4-0.7-0.4-1.2v-3.3
		c0-0.5,0.1-0.9,0.4-1.2s0.6-0.4,1-0.4s0.8,0.1,1,0.4c0.2,0.3,0.4,0.7,0.4,1.2V97.9z M157,97.9c0,0.5-0.1,0.9-0.4,1.2
		c-0.2,0.3-0.6,0.4-1,0.4c-0.4,0-0.8-0.1-1-0.4s-0.4-0.7-0.4-1.2v-4.8h0.9V98c0,0.2,0,0.4,0.1,0.5s0.2,0.1,0.4,0.1s0.3,0,0.4-0.1
		c0.1-0.1,0.1-0.2,0.1-0.5v-4.9h0.9V97.9z M161.4,99.4h-2.4v-6.3h0.9v5.4h1.5L161.4,99.4L161.4,99.4z M164.9,97.9
		c0,0.5-0.1,0.9-0.4,1.2s-0.6,0.4-1,0.4s-0.8-0.1-1-0.4c-0.2-0.3-0.4-0.7-0.4-1.2v-3.3c0-0.5,0.1-0.9,0.4-1.2s0.6-0.4,1-0.4
		s0.8,0.1,1,0.4c0.2,0.3,0.4,0.7,0.4,1.2V97.9z M167.7,99.4h-1.2l-0.9-6.3h0.9l0.6,4.9h0l0.6-4.9h0.8L167.7,99.4z M171.9,94h-1.6
		v1.7h1.3v0.9h-1.3v1.9h1.6v0.9h-2.5v-6.3h2.5V94z"/>
</g>
<rect x="120.3" y="91.7" class="st0" width="53" height="8.4"/>
<rect class="st1" width="112.8" height="7.8"/>
<rect x="123.9" y="94.2" class="st2" width="86.4" height="8.5"/>
<text transform="matrix(1 0 0 1 123.8919 99.1512)" class="st3 st4">SOUNDS YOU LOVE</text>
</svg>
